<svg xmlns="http://www.w3.org/2000/svg" viewBox="0 0 100 100">
  <defs>
    <linearGradient id="grad" x1="0%" y1="0%" x2="100%" y2="100%">
      <stop offset="0%" style="stop-color:#6366f1;stop-opacity:1" />
      <stop offset="100%" style="stop-color:#818cf8;stop-opacity:1" />
    </linearGradient>
  </defs>
  <rect width="100" height="100" rx="20" fill="url(#grad)"/>
  <path d="M50 20a25 25 0 0 1 25 25 10 10 0 0 1-12.5 12.5 10 10 0 0 1-12.5-12.5 10 10 0 0 1-12.5 12.5 10 10 0 0 1-12.5-12.5 25 25 0 0 1 25-25Z"
        fill="none" stroke="white" stroke-width="4" stroke-linecap="round" stroke-linejoin="round"/>
  <circle cx="37.5" cy="37.5" r="1.5" fill="white"/>
  <circle cx="62.5" cy="37.5" r="1.5" fill="white"/>
  <circle cx="50" cy="50" r="1.5" fill="white"/>
</svg>
